# xmcd CD database file
#
# Track frame offsets:
#	150
#	14039
#	29402
#	44061
#	60789
#	75387
#	89221
#	105890
#	121299
#	137358
#	151727
#	166711
#	180497
#	195021
#	213895
#	233460
#	240639
#
# Disc length: 3454 seconds
#
# Revision: 1
# Processed by: cddbd v1.5.2PL0 Copyright (c) Steve Scherf et al.
# Submitted via: CDex 1.70beta2
#
DISCID=c00d7c11
DTITLE=Jon Katz - A Good Dog [CD6]
DYEAR=2006
DGENRE=Audiobook
TTITLE0=A Good Dog [CD6] - Track 01
TTITLE1=A Good Dog [CD6] - Track 02
TTITLE2=A Good Dog [CD6] - Track 03
TTITLE3=A Good Dog [CD6] - Track 04
TTITLE4=A Good Dog [CD6] - Track 05
TTITLE5=A Good Dog [CD6] - Track 06
TTITLE6=A Good Dog [CD6] - Track 07
TTITLE7=A Good Dog [CD6] - Track 08
TTITLE8=A Good Dog [CD6] - Track 09
TTITLE9=A Good Dog [CD6] - Track 10
TTITLE10=A Good Dog [CD6] - Track 11
TTITLE11=A Good Dog [CD6] - Track 12
TTITLE12=A Good Dog [CD6] - Track 13
TTITLE13=A Good Dog [CD6] - Track 14
TTITLE14=A Good Dog [CD6] - Track 15
TTITLE15=A Good Dog [CD6] - Track 16
TTITLE16=A Good Dog [CD6] - Track 17
EXTD=A Good Dog by Joh Katz 6 CDs\nread by Tom Stechschulte recorded books\n2006 Jungle Country YEAR: 2006
EXTT0=
EXTT1=
EXTT2=
EXTT3=
EXTT4=
EXTT5=
EXTT6=
EXTT7=
EXTT8=
EXTT9=
EXTT10=
EXTT11=
EXTT12=
EXTT13=
EXTT14=
EXTT15=
EXTT16=
PLAYORDER=
